<?xml version="1.0" encoding="UTF-8"?>
<svg xmlns="http://www.w3.org/2000/svg" width="1600" height="1000" viewBox="0 0 1600 1000">
<defs><style><![CDATA[
.bg{fill:#f7f9fc}.card{fill:#fff;stroke:#d9e1ea;stroke-width:2}
.tb{fill:#1348a8;font:700 29px Arial,"Noto Sans KR",sans-serif}
.tg{fill:#198038;font:700 29px Arial,"Noto Sans KR",sans-serif}
.to{fill:#e04d00;font:700 29px Arial,"Noto Sans KR",sans-serif}
.tr{fill:#c40016;font:700 29px Arial,"Noto Sans KR",sans-serif}
.sub{fill:#294b87;font:600 18px Arial,"Noto Sans KR",sans-serif}
.h{fill:#1f2733;font:700 22px Arial,"Noto Sans KR",sans-serif}
.body{fill:#26313f;font:19px Arial,"Noto Sans KR",sans-serif}
.small{fill:#52606d;font:17px Arial,"Noto Sans KR",sans-serif}
.link{fill:#1f5fe0;font:700 19px Arial,"Noto Sans KR",sans-serif}
.num{fill:#fff;font:700 22px Arial,sans-serif;text-anchor:middle;dominant-baseline:middle}
.check{fill:#111827;font:700 23px Arial,"Noto Sans KR",sans-serif}
]]></style></defs>

<rect class="bg" width="1600" height="1000"/>

<!-- COLUMN 1: SELLO -->
<rect class="card" x="20" y="20" width="380" height="960" rx="20"/>
<path d="M48 57C62 30 92 28 103 58C87 52 72 48 48 57Z" fill="#1348a8"/>
<path d="M75 35V64M63 38L70 64M87 39L80 64M53 45L66 67M97 45L84 67" stroke="#fff" stroke-width="3"/>
<text x="118" y="58" class="tb">Sello (도장) 장소 &amp; 순서</text>
<text x="118" y="88" class="sub">카미노 여권에 찍어야 할 도장 5곳</text>

<line x1="58" y1="135" x2="58" y2="815" stroke="#80a8ea" stroke-width="3" stroke-dasharray="6 10"/>

<circle cx="58" cy="140" r="21" fill="#1546a0"/><text x="58" y="140" class="num">1</text>
<text x="102" y="135" class="h">Cruz de Ferro (철십자가)</text>
<text x="102" y="168" class="sub">(중간 도장)</text>
<text x="102" y="201" class="body">카미노의 상징! 순례자들이 돌을 놓고</text>
<text x="102" y="228" class="body">기도하는 최고 명소.</text>

<circle cx="58" cy="290" r="21" fill="#1546a0"/><text x="58" y="290" class="num">2</text>
<text x="102" y="285" class="h">Molinaseca 교회</text>
<text x="102" y="318" class="sub">(중간 도장)</text>
<text x="102" y="351" class="body">아름다운 중세 마을에서 도장 받기.</text>

<circle cx="58" cy="440" r="21" fill="#1546a0"/><text x="58" y="440" class="num">3</text>
<text x="102" y="435" class="h">Ponferrada 템플 기사단 성</text>
<text x="102" y="468" class="sub">(중간 도장)</text>
<text x="102" y="501" class="body">Templar Castle 내 Pilgrim Office.</text>

<circle cx="58" cy="590" r="21" fill="#1546a0"/><text x="58" y="590" class="num">4</text>
<text x="102" y="585" class="h">Cacabelos 교회</text>
<text x="102" y="618" class="sub">(중간 도장)</text>
<text x="102" y="651" class="body">Río Cúa 강변의 와이너리 마을.</text>

<circle cx="58" cy="740" r="21" fill="#1546a0"/><text x="58" y="740" class="num">5</text>
<text x="102" y="735" class="h">Vega de Valcarce</text>
<text x="102" y="768" class="h">알베르게/숙소</text>
<text x="102" y="801" class="sub">(도착 도장)</text>
<text x="102" y="834" class="body">마지막 도장을 받으세요.</text>

<rect x="44" y="865" width="332" height="75" rx="16" fill="#edf4ff" stroke="#c9daf7"/>
<text x="64" y="897" class="h" fill="#1348a8">Day 10 Sello 핵심</text>
<text x="64" y="925" class="small">Cruz de Ferro → Molinaseca → Ponferrada → Cacabelos → Vega</text>

<!-- COLUMN 2: MUST SEE -->
<rect class="card" x="420" y="20" width="380" height="960" rx="20"/>
<circle cx="456" cy="57" r="13" fill="none" stroke="#198038" stroke-width="6"/>
<circle cx="482" cy="57" r="13" fill="none" stroke="#198038" stroke-width="6"/>
<rect x="465" y="41" width="9" height="16" rx="3" fill="#198038"/>
<text x="505" y="58" class="tg">오늘의 명소 (Must See)</text>

<rect x="444" y="110" width="332" height="175" rx="16" fill="#f4fbf5" stroke="#cfe8d4"/>
<text x="466" y="150" class="h">Cruz de Ferro (철십자가)</text>
<text x="466" y="188" class="body">1,504m의 카미노 최고 지점.</text>
<text x="466" y="218" class="body">돌을 올려놓고 소원을 빌어보세요.</text>

<rect x="444" y="305" width="332" height="175" rx="16" fill="#f4fbf5" stroke="#cfe8d4"/>
<text x="466" y="345" class="h">Molinaseca 마을</text>
<text x="466" y="383" class="body">중세 다리와 돌길이 아름다운</text>
<text x="466" y="413" class="body">'카미노의 보석'. 테라스에서</text>
<text x="466" y="443" class="body">잠시 휴식을 즐기기에 좋아요.</text>

<rect x="444" y="500" width="332" height="175" rx="16" fill="#f4fbf5" stroke="#cfe8d4"/>
<text x="466" y="540" class="h">Ponferrada 템플 기사단 성</text>
<text x="466" y="578" class="body">12세기 십자군 기사단(Templar)</text>
<text x="466" y="608" class="body">이 지은 웅장한 성. 박물관 관람</text>
<text x="466" y="638" class="body">추천!</text>

<rect x="444" y="695" width="332" height="175" rx="16" fill="#f4fbf5" stroke="#cfe8d4"/>
<text x="466" y="735" class="h">Bierzo 와인 지역</text>
<text x="466" y="773" class="body">Cacabelos 주변은 스페인</text>
<text x="466" y="803" class="body">유명 와인 산지 Bierzo의 중심지.</text>
<text x="466" y="833" class="body">포도밭 풍경이 아름답습니다.</text>

<rect x="444" y="890" width="332" height="50" rx="16" fill="#edf8ef" stroke="#cfe8d4"/>
<text x="466" y="922" class="small">Cruz de Ferro → Molinaseca → Ponferrada → Bierzo</text>

<!-- COLUMN 3: LUNCH -->
<rect class="card" x="820" y="20" width="380" height="960" rx="20"/>
<path d="M853 34V60M846 34V47M860 34V47M846 47H860M853 60V77" stroke="#e04d00" stroke-width="5"/>
<path d="M878 34C890 46 890 59 878 69V77" fill="none" stroke="#e04d00" stroke-width="5"/>
<text x="905" y="58" class="to">점심 맛집 추천</text>

<rect x="844" y="105" width="332" height="360" rx="18" fill="#fff9f1" stroke="#f1c994" stroke-width="2"/>
<text x="1010" y="145" text-anchor="middle" class="h">Mesón Puente Romano</text>
<text x="1010" y="175" text-anchor="middle" class="h">(Molinaseca)</text>
<line x1="872" y1="200" x2="1148" y2="200" stroke="#ead3b4" stroke-width="2"/>
<text x="874" y="245" class="check">✓</text><text x="908" y="245" class="body">강변 테라스에서 맛보는 현지 요리</text>
<text x="874" y="290" class="check">✓</text><text x="908" y="290" class="body">추천 메뉴: Pulpo a la gallega(문어), 생선요리</text>
<text x="874" y="335" class="check">✓</text><text x="908" y="335" class="body">가격대: €15~€22</text>
<text x="874" y="380" class="check">✓</text><text x="908" y="380" class="body">주소: C. el Rollo, 12, Molinaseca</text>
<text x="874" y="430" font-size="30">●</text><text x="916" y="430" class="link">Google Maps</text>

<rect x="844" y="495" width="332" height="360" rx="18" fill="#fff9f1" stroke="#f1c994" stroke-width="2"/>
<text x="1010" y="535" text-anchor="middle" class="h">La Marmita Verde</text>
<text x="1010" y="565" text-anchor="middle" class="h">(Ponferrada)</text>
<line x1="872" y1="590" x2="1148" y2="590" stroke="#ead3b4" stroke-width="2"/>
<text x="874" y="635" class="check">✓</text><text x="908" y="635" class="body">순례자들에게 인기 있는 레스토랑</text>
<text x="874" y="680" class="check">✓</text><text x="908" y="680" class="body">추천 메뉴: 맥주, 샐러드, 파스타, 현지요리</text>
<text x="874" y="725" class="check">✓</text><text x="908" y="725" class="body">가격대: €12~€20</text>
<text x="874" y="770" class="check">✓</text><text x="908" y="770" class="body">주소: Av. España, 21, Ponferrada</text>
<text x="874" y="820" font-size="30">●</text><text x="916" y="820" class="link">Google Maps</text>

<rect x="844" y="875" width="332" height="65" rx="16" fill="#fffdf9" stroke="#f1d8b7"/>
<text x="868" y="914" class="small">Molinaseca에서 가볍게, Ponferrada에서 여유 있게 선택 가능.</text>

<!-- COLUMN 4: DINNER -->
<rect class="card" x="1220" y="20" width="360" height="960" rx="20"/>
<path d="M1253 34V60M1246 34V47M1260 34V47M1246 47H1260M1253 60V77" stroke="#c40016" stroke-width="5"/>
<path d="M1278 34C1290 46 1290 59 1278 69V77" fill="none" stroke="#c40016" stroke-width="5"/>
<text x="1303" y="58" class="tr">저녁 맛집 추천</text>

<rect x="1244" y="105" width="312" height="360" rx="18" fill="#fff4f5" stroke="#f0b7be" stroke-width="2"/>
<text x="1400" y="145" text-anchor="middle" class="h">Hotel Restaurante La Corte</text>
<text x="1400" y="175" text-anchor="middle" class="h">(Vega de Valcarce)</text>
<line x1="1270" y1="200" x2="1530" y2="200" stroke="#efc8cd" stroke-width="2"/>
<text x="1272" y="245" class="check">✓</text><text x="1306" y="245" class="body">숙소와 함께 운영되는 편안한 레스토랑</text>
<text x="1272" y="290" class="check">✓</text><text x="1306" y="290" class="body">추천 메뉴: 그릴 고기, 수프, 샐러드</text>
<text x="1272" y="335" class="check">✓</text><text x="1306" y="335" class="body">가격대: €14~€20</text>
<text x="1272" y="380" class="check">✓</text><text x="1306" y="380" class="body">주소: Tr.ª de la Escuela, 3</text>
<text x="1272" y="430" font-size="30">●</text><text x="1314" y="430" class="link">Google Maps</text>

<rect x="1244" y="495" width="312" height="360" rx="18" fill="#fff4f5" stroke="#f0b7be" stroke-width="2"/>
<text x="1400" y="535" text-anchor="middle" class="h">Casa Méndez</text>
<text x="1400" y="565" text-anchor="middle" class="h">(Vega de Valcarce)</text>
<line x1="1270" y1="590" x2="1530" y2="590" stroke="#efc8cd" stroke-width="2"/>
<text x="1272" y="635" class="check">✓</text><text x="1306" y="635" class="body">순례자들에게 인기 있는 현지 식당</text>
<text x="1272" y="680" class="check">✓</text><text x="1306" y="680" class="body">추천 메뉴: 오가스테라, 생선요리</text>
<text x="1272" y="725" class="check">✓</text><text x="1306" y="725" class="body">가격대: €12~€18</text>
<text x="1272" y="770" class="check">✓</text><text x="1306" y="770" class="body">주소: Ctra. Antigua, Vega de Valcarce</text>
<text x="1272" y="820" font-size="30">●</text><text x="1314" y="820" class="link">Google Maps</text>

<rect x="1244" y="875" width="312" height="65" rx="16" fill="#fffafb" stroke="#efcbd0"/>
<text x="1268" y="914" class="small">도착 후 숙소 위치와 컨디션에 따라 두 곳 중 선택하세요.</text>
</svg>