<svg xmlns="http://www.w3.org/2000/svg" width="1600" height="1000" viewBox="0 0 1600 1000">
<rect width="1600" height="1000" fill="#FAFAF7"/>
<rect x="20" y="18" rx="14" ry="14" width="160" height="58" fill="#9A3412"/>
<text x="100" y="58" text-anchor="middle" font-family="Arial, Noto Sans KR, sans-serif" font-size="34" font-weight="700" fill="white">DAY 5</text>
<text x="205" y="55" font-family="Arial, Noto Sans KR, sans-serif" font-size="38" font-weight="700" fill="#111827">Belorado → Castrojeriz</text>
<text x="205" y="92" font-family="Arial, Noto Sans KR, sans-serif" font-size="24" font-weight="700" fill="#9A3412">90.0 km / 상승 940 m</text>
<polyline points="820,124 970,112 1120,118 1285,120 1510,121" fill="none" stroke="#9A3412" stroke-width="5"/>
<circle cx="820" cy="124" r="7" fill="#9A3412"/>
<text x="820" y="94" text-anchor="middle" font-family="Arial, Noto Sans KR, sans-serif" font-size="16" font-weight="700" fill="#111">Belorado</text>
<text x="820" y="154" text-anchor="middle" font-family="Arial, Noto Sans KR, sans-serif" font-size="14" fill="#374151">0 km</text>
<circle cx="970" cy="112" r="7" fill="#9A3412"/>
<text x="970" y="94" text-anchor="middle" font-family="Arial, Noto Sans KR, sans-serif" font-size="16" font-weight="700" fill="#111">San Juan</text>
<text x="970" y="154" text-anchor="middle" font-family="Arial, Noto Sans KR, sans-serif" font-size="14" fill="#374151">23.3 km</text>
<circle cx="1120" cy="118" r="7" fill="#9A3412"/>
<text x="1120" y="94" text-anchor="middle" font-family="Arial, Noto Sans KR, sans-serif" font-size="16" font-weight="700" fill="#111">Burgos</text>
<text x="1120" y="154" text-anchor="middle" font-family="Arial, Noto Sans KR, sans-serif" font-size="14" fill="#374151">49.5 km</text>
<circle cx="1285" cy="120" r="7" fill="#9A3412"/>
<text x="1285" y="94" text-anchor="middle" font-family="Arial, Noto Sans KR, sans-serif" font-size="16" font-weight="700" fill="#111">Hornillos</text>
<text x="1285" y="154" text-anchor="middle" font-family="Arial, Noto Sans KR, sans-serif" font-size="14" fill="#374151">~67 km</text>
<circle cx="1510" cy="121" r="7" fill="#9A3412"/>
<text x="1510" y="94" text-anchor="middle" font-family="Arial, Noto Sans KR, sans-serif" font-size="16" font-weight="700" fill="#111">Castrojeriz</text>
<text x="1510" y="154" text-anchor="middle" font-family="Arial, Noto Sans KR, sans-serif" font-size="14" fill="#374151">90.0 km</text>
<rect x="20" y="145" rx="16" ry="16" width="365" height="825" fill="#FFFFFF" stroke="#8B2F1C" stroke-width="2"/>
<rect x="20" y="145" rx="16" ry="16" width="365" height="62" fill="#8B2F1C"/>
<text x="42" y="186" font-family="Arial, Noto Sans KR, sans-serif" font-size="26" font-weight="700" fill="white">도장 (Sello) 장소 &amp; 순서</text>
<circle cx="48" cy="234" r="18" fill="#8B2F1C"/>
<text x="48" y="240" text-anchor="middle" font-family="Arial, sans-serif" font-size="18" font-weight="700" fill="white">1</text>
<text x="78" y="222" font-family="Arial, Noto Sans KR, sans-serif" font-size="16" font-weight="700" fill="#8B2F1C">km 23.3</text>
<text x="78" y="248" font-family="Arial, Noto Sans KR, sans-serif" font-size="19" font-weight="700" fill="#111827">Iglesia de San Juan de Ortega</text>
<text x="78" y="274" font-family="Arial, Noto Sans KR, sans-serif" font-size="17" fill="#374151">산 후안 데 오르테가 성당</text>
<line x1="38" y1="294" x2="367" y2="294" stroke="#E5E7EB" stroke-width="1"/>
<circle cx="48" cy="324" r="18" fill="#8B2F1C"/>
<text x="48" y="330" text-anchor="middle" font-family="Arial, sans-serif" font-size="18" font-weight="700" fill="white">2</text>
<text x="78" y="312" font-family="Arial, Noto Sans KR, sans-serif" font-size="16" font-weight="700" fill="#8B2F1C">km 49.6</text>
<text x="78" y="338" font-family="Arial, Noto Sans KR, sans-serif" font-size="19" font-weight="700" fill="#111827">Catedral de Santa María de Burgos</text>
<text x="78" y="364" font-family="Arial, Noto Sans KR, sans-serif" font-size="17" fill="#374151">부르고스 대성당</text>
<line x1="38" y1="384" x2="367" y2="384" stroke="#E5E7EB" stroke-width="1"/>
<circle cx="48" cy="414" r="18" fill="#8B2F1C"/>
<text x="48" y="420" text-anchor="middle" font-family="Arial, sans-serif" font-size="18" font-weight="700" fill="white">3</text>
<text x="78" y="402" font-family="Arial, Noto Sans KR, sans-serif" font-size="16" font-weight="700" fill="#8B2F1C">km 86.2</text>
<text x="78" y="428" font-family="Arial, Noto Sans KR, sans-serif" font-size="19" font-weight="700" fill="#111827">Convento de San Antón</text>
<text x="78" y="454" font-family="Arial, Noto Sans KR, sans-serif" font-size="17" fill="#374151">산 안톤 수도원 유적</text>
<line x1="38" y1="474" x2="367" y2="474" stroke="#E5E7EB" stroke-width="1"/>
<circle cx="48" cy="504" r="18" fill="#8B2F1C"/>
<text x="48" y="510" text-anchor="middle" font-family="Arial, sans-serif" font-size="18" font-weight="700" fill="white">4</text>
<text x="78" y="492" font-family="Arial, Noto Sans KR, sans-serif" font-size="16" font-weight="700" fill="#8B2F1C">km 89.4</text>
<text x="78" y="518" font-family="Arial, Noto Sans KR, sans-serif" font-size="19" font-weight="700" fill="#111827">Iglesia de Santo Domingo,</text>
<text x="78" y="542" font-family="Arial, Noto Sans KR, sans-serif" font-size="19" font-weight="700" fill="#111827">Castrojeriz</text>
<text x="78" y="568" font-family="Arial, Noto Sans KR, sans-serif" font-size="17" fill="#374151">카스트로헤리스 산토 도밍고 성당</text>
<line x1="38" y1="588" x2="367" y2="588" stroke="#E5E7EB" stroke-width="1"/>
<rect x="34" y="865" rx="12" ry="12" width="337" height="84" fill="#8B2F1C" opacity="0.07" stroke="#8B2F1C" stroke-width="1"/>
<text x="48" y="893" font-family="Arial, Noto Sans KR, sans-serif" font-size="16" fill="#374151">팁: 성당·알베르게·순례자 시설에서 Sello를 받을 수 있습니다.</text>
<text x="48" y="915" font-family="Arial, Noto Sans KR, sans-serif" font-size="16" fill="#374151">운영시간은 현장에서 확인하세요.</text>
<rect x="400" y="145" rx="16" ry="16" width="365" height="825" fill="#FFFFFF" stroke="#0E6B36" stroke-width="2"/>
<rect x="400" y="145" rx="16" ry="16" width="365" height="62" fill="#0E6B36"/>
<text x="422" y="186" font-family="Arial, Noto Sans KR, sans-serif" font-size="26" font-weight="700" fill="white">오늘의 포토존 (Photo Spots)</text>
<circle cx="428" cy="234" r="18" fill="#0E6B36"/>
<text x="428" y="240" text-anchor="middle" font-family="Arial, sans-serif" font-size="18" font-weight="700" fill="white">1</text>
<text x="458" y="222" font-family="Arial, Noto Sans KR, sans-serif" font-size="16" font-weight="700" fill="#0E6B36">km 23.3</text>
<text x="458" y="248" font-family="Arial, Noto Sans KR, sans-serif" font-size="19" font-weight="700" fill="#111827">Iglesia de San Juan de Ortega</text>
<text x="458" y="274" font-family="Arial, Noto Sans KR, sans-serif" font-size="17" fill="#374151">산 후안 데 오르테가 성당</text>
<line x1="418" y1="294" x2="747" y2="294" stroke="#E5E7EB" stroke-width="1"/>
<circle cx="428" cy="324" r="18" fill="#0E6B36"/>
<text x="428" y="330" text-anchor="middle" font-family="Arial, sans-serif" font-size="18" font-weight="700" fill="white">2</text>
<text x="458" y="312" font-family="Arial, Noto Sans KR, sans-serif" font-size="16" font-weight="700" fill="#0E6B36">km 49.5</text>
<text x="458" y="338" font-family="Arial, Noto Sans KR, sans-serif" font-size="19" font-weight="700" fill="#111827">Plaza Mayor de Burgos</text>
<text x="458" y="364" font-family="Arial, Noto Sans KR, sans-serif" font-size="17" fill="#374151">부르고스 마요르 광장</text>
<line x1="418" y1="384" x2="747" y2="384" stroke="#E5E7EB" stroke-width="1"/>
<circle cx="428" cy="414" r="18" fill="#0E6B36"/>
<text x="428" y="420" text-anchor="middle" font-family="Arial, sans-serif" font-size="18" font-weight="700" fill="white">3</text>
<text x="458" y="402" font-family="Arial, Noto Sans KR, sans-serif" font-size="16" font-weight="700" fill="#0E6B36">km 49.6</text>
<text x="458" y="428" font-family="Arial, Noto Sans KR, sans-serif" font-size="19" font-weight="700" fill="#111827">Catedral de Santa María de Burgos</text>
<text x="458" y="454" font-family="Arial, Noto Sans KR, sans-serif" font-size="17" fill="#374151">부르고스 대성당</text>
<line x1="418" y1="474" x2="747" y2="474" stroke="#E5E7EB" stroke-width="1"/>
<circle cx="428" cy="504" r="18" fill="#0E6B36"/>
<text x="428" y="510" text-anchor="middle" font-family="Arial, sans-serif" font-size="18" font-weight="700" fill="white">4</text>
<text x="458" y="492" font-family="Arial, Noto Sans KR, sans-serif" font-size="16" font-weight="700" fill="#0E6B36">km 86.2</text>
<text x="458" y="518" font-family="Arial, Noto Sans KR, sans-serif" font-size="19" font-weight="700" fill="#111827">Convento de San Antón</text>
<text x="458" y="544" font-family="Arial, Noto Sans KR, sans-serif" font-size="17" fill="#374151">산 안톤 수도원 유적</text>
<line x1="418" y1="564" x2="747" y2="564" stroke="#E5E7EB" stroke-width="1"/>
<circle cx="428" cy="594" r="18" fill="#0E6B36"/>
<text x="428" y="600" text-anchor="middle" font-family="Arial, sans-serif" font-size="18" font-weight="700" fill="white">5</text>
<text x="458" y="582" font-family="Arial, Noto Sans KR, sans-serif" font-size="16" font-weight="700" fill="#0E6B36">km 89.4</text>
<text x="458" y="608" font-family="Arial, Noto Sans KR, sans-serif" font-size="19" font-weight="700" fill="#111827">Iglesia de Santo Domingo,</text>
<text x="458" y="632" font-family="Arial, Noto Sans KR, sans-serif" font-size="19" font-weight="700" fill="#111827">Castrojeriz</text>
<text x="458" y="658" font-family="Arial, Noto Sans KR, sans-serif" font-size="17" fill="#374151">카스트로헤리스 산토 도밍고 성당</text>
<line x1="418" y1="678" x2="747" y2="678" stroke="#E5E7EB" stroke-width="1"/>
<rect x="414" y="865" rx="12" ry="12" width="337" height="84" fill="#0E6B36" opacity="0.07" stroke="#0E6B36" stroke-width="1"/>
<text x="428" y="893" font-family="Arial, Noto Sans KR, sans-serif" font-size="16" fill="#374151">팁: 부르고스 대성당과 산 안톤 수도원 유적은 Day 5의 대표</text>
<text x="428" y="915" font-family="Arial, Noto Sans KR, sans-serif" font-size="16" fill="#374151">포토존입니다.</text>
<rect x="780" y="145" rx="16" ry="16" width="390" height="825" fill="#FFFFFF" stroke="#D97706" stroke-width="2"/>
<rect x="780" y="145" rx="16" ry="16" width="390" height="62" fill="#D97706"/>
<text x="802" y="186" font-family="Arial, Noto Sans KR, sans-serif" font-size="26" font-weight="700" fill="white">점심 맛집 추천</text>
<rect x="796" y="213" rx="8" ry="8" width="68" height="28" fill="#D97706" opacity="0.12"/>
<text x="830" y="233" text-anchor="middle" font-family="Arial, Noto Sans KR, sans-serif" font-size="15" font-weight="700" fill="#D97706">위치</text>
<text x="876" y="222" font-family="Arial, Noto Sans KR, sans-serif" font-size="16" font-weight="700" fill="#D97706">Burgos</text>
<text x="876" y="248" font-family="Arial, Noto Sans KR, sans-serif" font-size="19" font-weight="700" fill="#111827">La Gallega</text>
<text x="876" y="274" font-family="Arial, Noto Sans KR, sans-serif" font-size="17" fill="#374151">부르고스 중심가</text>
<line x1="798" y1="294" x2="1152" y2="294" stroke="#E5E7EB" stroke-width="1"/>
<rect x="796" y="303" rx="8" ry="8" width="68" height="28" fill="#D97706" opacity="0.12"/>
<text x="830" y="323" text-anchor="middle" font-family="Arial, Noto Sans KR, sans-serif" font-size="15" font-weight="700" fill="#D97706">메뉴</text>
<text x="876" y="338" font-family="Arial, Noto Sans KR, sans-serif" font-size="19" font-weight="700" fill="#111827">Menú del Día</text>
<text x="876" y="364" font-family="Arial, Noto Sans KR, sans-serif" font-size="17" fill="#374151">오늘의 메뉴</text>
<line x1="798" y1="384" x2="1152" y2="384" stroke="#E5E7EB" stroke-width="1"/>
<rect x="796" y="393" rx="8" ry="8" width="68" height="28" fill="#D97706" opacity="0.12"/>
<text x="830" y="413" text-anchor="middle" font-family="Arial, Noto Sans KR, sans-serif" font-size="15" font-weight="700" fill="#D97706">추천</text>
<text x="876" y="428" font-family="Arial, Noto Sans KR, sans-serif" font-size="19" font-weight="700" fill="#111827">Pulpo a la Gallega</text>
<text x="876" y="454" font-family="Arial, Noto Sans KR, sans-serif" font-size="17" fill="#374151">갈리시아식 문어</text>
<line x1="798" y1="474" x2="1152" y2="474" stroke="#E5E7EB" stroke-width="1"/>
<rect x="796" y="483" rx="8" ry="8" width="68" height="28" fill="#D97706" opacity="0.12"/>
<text x="830" y="503" text-anchor="middle" font-family="Arial, Noto Sans KR, sans-serif" font-size="15" font-weight="700" fill="#D97706">추천</text>
<text x="876" y="518" font-family="Arial, Noto Sans KR, sans-serif" font-size="19" font-weight="700" fill="#111827">Tortilla Española</text>
<text x="876" y="544" font-family="Arial, Noto Sans KR, sans-serif" font-size="17" fill="#374151">스페인식 오믈렛</text>
<line x1="798" y1="564" x2="1152" y2="564" stroke="#E5E7EB" stroke-width="1"/>
<rect x="794" y="865" rx="12" ry="12" width="362" height="84" fill="#D97706" opacity="0.07" stroke="#D97706" stroke-width="1"/>
<text x="808" y="893" font-family="Arial, Noto Sans KR, sans-serif" font-size="16" fill="#374151">부르고스는 전체 90 km 중 약 49.5 km 지점이라 긴 Day</text>
<text x="808" y="915" font-family="Arial, Noto Sans KR, sans-serif" font-size="16" fill="#374151">5의 점심 휴식 장소로 적합합니다.</text>
<rect x="1185" y="145" rx="16" ry="16" width="395" height="825" fill="#FFFFFF" stroke="#0F4AA3" stroke-width="2"/>
<rect x="1185" y="145" rx="16" ry="16" width="395" height="62" fill="#0F4AA3"/>
<text x="1207" y="186" font-family="Arial, Noto Sans KR, sans-serif" font-size="26" font-weight="700" fill="white">저녁 맛집 추천 (도착지)</text>
<rect x="1201" y="213" rx="8" ry="8" width="68" height="28" fill="#0F4AA3" opacity="0.12"/>
<text x="1235" y="233" text-anchor="middle" font-family="Arial, Noto Sans KR, sans-serif" font-size="15" font-weight="700" fill="#0F4AA3">위치</text>
<text x="1281" y="222" font-family="Arial, Noto Sans KR, sans-serif" font-size="16" font-weight="700" fill="#0F4AA3">Castrojeriz</text>
<text x="1281" y="248" font-family="Arial, Noto Sans KR, sans-serif" font-size="19" font-weight="700" fill="#111827">El Mesón de Castrojeriz</text>
<text x="1281" y="274" font-family="Arial, Noto Sans KR, sans-serif" font-size="17" fill="#374151">카스트로헤리스 중심가</text>
<line x1="1203" y1="294" x2="1562" y2="294" stroke="#E5E7EB" stroke-width="1"/>
<rect x="1201" y="303" rx="8" ry="8" width="68" height="28" fill="#0F4AA3" opacity="0.12"/>
<text x="1235" y="323" text-anchor="middle" font-family="Arial, Noto Sans KR, sans-serif" font-size="15" font-weight="700" fill="#0F4AA3">메뉴</text>
<text x="1281" y="338" font-family="Arial, Noto Sans KR, sans-serif" font-size="19" font-weight="700" fill="#111827">Menú del Peregrino</text>
<text x="1281" y="364" font-family="Arial, Noto Sans KR, sans-serif" font-size="17" fill="#374151">순례자 메뉴</text>
<line x1="1203" y1="384" x2="1562" y2="384" stroke="#E5E7EB" stroke-width="1"/>
<rect x="1201" y="393" rx="8" ry="8" width="68" height="28" fill="#0F4AA3" opacity="0.12"/>
<text x="1235" y="413" text-anchor="middle" font-family="Arial, Noto Sans KR, sans-serif" font-size="15" font-weight="700" fill="#0F4AA3">추천</text>
<text x="1281" y="428" font-family="Arial, Noto Sans KR, sans-serif" font-size="19" font-weight="700" fill="#111827">Lechazo Asado</text>
<text x="1281" y="454" font-family="Arial, Noto Sans KR, sans-serif" font-size="17" fill="#374151">카스티야식 어린 양고기 구이</text>
<line x1="1203" y1="474" x2="1562" y2="474" stroke="#E5E7EB" stroke-width="1"/>
<rect x="1201" y="483" rx="8" ry="8" width="68" height="28" fill="#0F4AA3" opacity="0.12"/>
<text x="1235" y="503" text-anchor="middle" font-family="Arial, Noto Sans KR, sans-serif" font-size="15" font-weight="700" fill="#0F4AA3">추천</text>
<text x="1281" y="518" font-family="Arial, Noto Sans KR, sans-serif" font-size="19" font-weight="700" fill="#111827">Sopa Castellana</text>
<text x="1281" y="544" font-family="Arial, Noto Sans KR, sans-serif" font-size="17" fill="#374151">카스티야식 마늘 수프</text>
<line x1="1203" y1="564" x2="1562" y2="564" stroke="#E5E7EB" stroke-width="1"/>
<rect x="1199" y="865" rx="12" ry="12" width="367" height="84" fill="#0F4AA3" opacity="0.07" stroke="#0F4AA3" stroke-width="1"/>
<text x="1213" y="893" font-family="Arial, Noto Sans KR, sans-serif" font-size="16" fill="#374151">90 km 장거리 주행 후 도착지에서 든든하게 먹기 좋은 저녁 식사</text>
<text x="1213" y="915" font-family="Arial, Noto Sans KR, sans-serif" font-size="16" fill="#374151">후보입니다.</text>
</svg>